HIERARCHY
ROOT ui
{
	 OFFSET 0 0 0
	 CHANNELS 3 XPosition YPosition Z Position
	 EndSite
	 {
	 OFFSET 0 -1 0
	 }
}
ROOT li
{
	 OFFSET 0 0 0
	 CHANNELS 3 XPosition YPosition Z Position
	 EndSite
	 {
	 OFFSET 0 -1 0
	 }
}
ROOT ul
{
	 OFFSET 0 0 0
	 CHANNELS 3 XPosition YPosition Z Position
	 EndSite
	 {
	 OFFSET 0 -1 0
	 }
}
ROOT ll
{
	 OFFSET 0 0 0
	 CHANNELS 3 XPosition YPosition Z Position
	 EndSite
	 {
	 OFFSET 0 -1 0
	 }
}
ROOT tt
{
	 OFFSET 0 0 0
	 CHANNELS 3 XPosition YPosition Z Position
	 EndSite
	 {
	 OFFSET 0 -1 0
	 }
}
ROOT tb
{
	 OFFSET 0 0 0
	 CHANNELS 3 XPosition YPosition Z Position
	 EndSite
	 {
	 OFFSET 0 -1 0
	 }
}
ROOT td
{
	 OFFSET 0 0 0
	 CHANNELS 3 XPosition YPosition Z Position
	 EndSite
	 {
	 OFFSET 0 -1 0
	 }
}
ROOT v
{
	 OFFSET 0 0 0
	 CHANNELS 3 XPosition YPosition Z Position
	 EndSite
	 {
	 OFFSET 0 -1 0
	 }
}
ROOT bn
{
	 OFFSET 0 0 0
	 CHANNELS 3 XPosition YPosition Z Position
	 EndSite
	 {
	 OFFSET 0 -1 0
	 }
}
MOTION
Frames: 13
Frame Time: 0.002
-4.94053989648819E-4	7.398579716682434E-4	0		0.46760208129882813	-2.3663212890625	0		-0.9526940307617188	-0.013232373237609863	0		-0.5963067016601562	-2.2571103515625	0		1.7696861572265625	-0.9409558715820312	0		3.668111083984375	-0.340916748046875	0		5.0953701171875	-0.13393711853027343	0		5.70322314453125	0.2286811065673828	0		-0.26740036010742185	5.8978779296875	0		
-0.02419771957397461	-0.006592031955718994	0		0.4406137390136719	-2.36369921875	0		-0.9523157958984375	-0.012663844108581544	0		-0.5962999267578125	-2.256600830078125	0		1.792941650390625	-0.9380841674804687	0		3.66657421875	-0.32809243774414065	0		5.081654296875	-0.14121954345703125	0		5.6995556640625	0.22019114685058594	0		-0.09875370025634765	5.924544921875	0		
0.00521052598953247	-0.0034921910762786865	0		0.4675829162597656	-2.3656533203125	0		-0.9519393920898438	-0.012097315788269043	0		-0.6292119140625	-2.248734375	0		1.7812979736328125	-0.9258362426757812	0		3.6687578125	-0.34130105590820314	0		5.07384716796875	-0.15655050659179687	0		5.6860576171875	0.22782308959960937	0		-0.23063894653320313	5.90441796875	0		
-0.028396352767944336	-7.128509879112244E-4	0		0.44465530395507813	-2.35806884765625	0		-1.0105350952148437	-0.007890535831451415	0		-0.5871799926757812	-2.246691650390625	0		1.799442138671875	-0.9329114379882812	0		3.653327392578125	-0.31830316162109373	0		5.0782685546875	-0.1499951934814453	0		5.6913642578125	0.2182711181640625	0		-0.21423338317871093	5.9136943359375	0		
0.005935577869415283	-0.0026928119659423828	0		0.4736499328613281	-2.358065185546875	0		-0.9390948486328125	-1.345289945602417E-4	0		-0.6200751342773437	-2.23783837890625	0		1.7428944091796874	-0.9111552734375	0		3.66632177734375	-0.34660906982421874	0		5.072703125	-0.14130870056152345	0		5.68683251953125	0.22485293579101562	0		-0.24702763366699218	5.90950244140625	0		
-0.014766905784606934	-0.0060746359825134275	0		0.4377762756347656	-2.34634619140625	0		-0.9427980346679687	-0.003571578025817871	0		-0.585116943359375	-2.242762939453125	0		1.7571710205078126	-0.9051859741210937	0		3.653930908203125	-0.31861477661132814	0		5.070775390625	-0.1636398468017578	0		5.6831279296875	0.21745433044433593	0		-0.26094024658203124	5.90008984375	0		
-0.0013722330331802368	1.4148299396038057E-4	0		0.4627254943847656	-2.351328369140625	0		-0.950550537109375	-0.009987705230712891	0		-0.62003515625	-2.23691943359375	0		1.73144580078125	-0.898764404296875	0		3.661985595703125	-0.3388392639160156	0		5.06618408203125	-0.1549102783203125	0		5.67938232421875	0.20809022521972656	0		-0.22574267578125	5.9060986328125	0		
0.00388494610786438	-0.004572807788848877	0		0.4378047485351563	-2.345754150390625	0		-0.946201904296875	-0.006571581840515137	0		-0.585061279296875	-2.2419033203125	0		1.754669677734375	-0.896905517578125	0		3.647375	-0.32878369140625	0		5.067294921875	-0.17121482849121095	0		5.684619140625	0.19866177368164062	0		-0.09143869018554687	5.9269287109375	0		
0.009131303787231445	-0.009310325622558594	0		0.4487716064453125	-2.351611328125	0		-1.0138338623046874	-3.476400077342987E-4	0		-0.6470191040039063	-2.241790283203125	0		1.7558494873046875	-0.8987964477539062	0		3.63638671875	-0.35074908447265624	0		5.05248828125	-0.17929660034179687	0		5.6710302734375	0.2054967803955078	0		-0.24067965698242189	5.909015625	0		
0.01460461139678955	0.0059269871711730955	0		0.4460062255859375	-2.33632470703125	0		-0.9334710083007812	0.005110111236572266	0		-0.5748374633789063	-2.23227587890625	0		1.7641845703125	-0.8877726440429687	0		3.655024658203125	-0.31903680419921876	0		5.06376708984375	-0.17964413452148437	0		5.68524169921875	0.19605128479003905	0		-0.07245977783203125	5.93536669921875	0		
0.00781166410446167	-7.150909900665284E-4	0		0.4669761657714844	-2.34533837890625	0		-0.941263916015625	-0.0014345359802246094	0		-0.6167705078125	-2.23344921875	0		1.74664453125	-0.8664437866210938	0		3.62302587890625	-0.3407091369628906	0		5.0440771484375	-0.17658799743652343	0		5.67246630859375	0.18896885681152345	0		-0.22198097229003907	5.90743359375	0		
0.013041035652160644	-0.004522151947021484	0		0.4670682678222656	-2.3451220703125	0		-0.949069580078125	-0.008010751724243164	0		-0.5817318725585937	-2.238565673828125	0		1.7468536376953125	-0.8663289184570313	0		3.63135986328125	-0.33383889770507813	0		5.0489931640625	-0.20579171752929687	0		5.6727587890625	0.18877317810058594	0		-0.2212359619140625	5.9077041015625	0		
-0.020684125900268555	-0.0028828749656677247	0		0.430289794921875	-2.334478759765625	0		-1.020792236328125	-0.005847658157348633	0		-0.6294901123046875	-2.226717529296875	0		1.7091173095703125	-0.8607616577148437	0		3.623513671875	-0.3407620849609375	0		5.039240234375	-0.20578936767578124	0		5.65992529296875	0.17976914978027345	0		-0.2205668487548828	5.90795068359375	0		
